<svg version="1.0" xmlns="http://www.w3.org/2000/svg" viewBox="0 0 160 193">
    <g stroke="white" stroke-width="3">
        <line x1="80" y1="5" x2="80" y2="45" />
        <line x1="70" y1="85" x2="95" y2="85" />
        <line x1="65" y1="132" x2="80" y2="132" />
        <polygon points="80,5 77,14 83,14" fill="white" />
        <g fill="none">
            <polyline points="95,105 80,105 80,188" />
            <polyline points="18,75 5,75 5,45 155,45 155,95 145,95" />
            <polyline points="18,95 5,95 5,132 27,132" />
            <path d="M 35,65 A 40,40 60 0 1 70,85 A 40,40 60 0 1 35,105 L 14.6,105 A 40,40 60 0 0 14.6,65 L 35,65" />
            <path d="M 125,75 A 20,20 0 0 1 125,115 L 95,115 95,75 125,75" />
            <polygon points="65,114 36,132 65,148" />
            <circle cx="31" cy="132" r="4" />
        </g>
    </g>
</svg>
